<?xml version="1.0" encoding="UTF-8"?>
<svg xmlns="http://www.w3.org/2000/svg" xmlns:xlink="http://www.w3.org/1999/xlink" viewBox="0 0 96 96" width="96px" height="96px">
<g id="surface161760803">
<path style=" stroke:none;fill-rule:nonzero;fill:rgb(70.980394%,1.960784%,0%);fill-opacity:1;" d="M 42 13.5 C 40.34375 13.5 39 14.84375 39 16.5 L 39 18 L 21 18 C 19.34375 18 18 19.34375 18 21 C 18 22.65625 19.34375 24 21 24 L 22.5 24 L 22.5 69 C 22.5 73.964844 26.535156 78 31.5 78 L 64.5 78 C 69.464844 78 73.5 73.964844 73.5 69 L 73.5 24 L 75 24 C 76.65625 24 78 22.65625 78 21 C 78 19.34375 76.65625 18 75 18 L 57 18 L 57 16.5 C 57 14.84375 55.65625 13.5 54 13.5 Z M 28.5 24 L 67.5 24 L 67.5 69 C 67.5 70.65625 66.15625 72 64.5 72 L 31.5 72 C 29.84375 72 28.5 70.65625 28.5 69 Z M 35.25 30 C 34.007812 30 33 31.007812 33 32.25 L 33 63.75 C 33 64.992188 34.007812 66 35.25 66 C 36.492188 66 37.5 64.992188 37.5 63.75 L 37.5 32.25 C 37.5 31.007812 36.492188 30 35.25 30 Z M 48 30 C 46.34375 30 45 31.34375 45 33 L 45 63 C 45 64.65625 46.34375 66 48 66 C 49.65625 66 51 64.65625 51 63 L 51 33 C 51 31.34375 49.65625 30 48 30 Z M 60.75 30 C 59.507812 30 58.5 31.007812 58.5 32.25 L 58.5 63.75 C 58.5 64.992188 59.507812 66 60.75 66 C 61.992188 66 63 64.992188 63 63.75 L 63 32.25 C 63 31.007812 61.992188 30 60.75 30 Z M 60.75 30 "/>
</g>
</svg>
